<?xml version="1.0" encoding="utf-8"?>
<svg version="1.1" width="512" height="256" viewBox="0 0 512 256" xmlns="http://www.w3.org/2000/svg">
  <desc>Created with Fabric.js 5.2.4</desc>
  <defs>
    <linearGradient gradientUnits="userSpaceOnUse" x1="250.2" y1="156.5" x2="250.2" y2="342.7" id="gradient-0">
      <stop offset="0" style="stop-color: rgb(94.902% 15.686% 78.039%)"/>
      <stop offset="1" style="stop-color: rgb(63.123% 0% 50.814%)"/>
    </linearGradient>
  </defs>
  <rect width="256" height="256" fill="transparent" style=""/>
  <g transform="matrix(1,0,0,1,540,540)" id="2fd12068-4581-405c-9f68-9215df8e39bb">
    <rect style="fill: rgb(255, 255, 255); fill-rule: nonzero; stroke: none; stroke-width: 1; stroke-linecap: butt; stroke-linejoin: miter; stroke-dasharray: none; stroke-dashoffset: 0; stroke-miterlimit: 4; opacity: 1; visibility: hidden" vector-effect="non-scaling-stroke" x="-540" y="-540" rx="0" ry="0" width="1080" height="1080"/>
  </g>
  <g transform="matrix(1,0,0,1,540,540)" id="f5f6e113-600b-444a-98b0-fbe8fa88eff3"/>
  <g transform="matrix(2.4,0,0,2.4,500,352.9)" id="7af5ba41-20d5-41f8-9068-cedd857ac95d">
    <path style="fill: url('#gradient-0'); fill-rule: nonzero; stroke: rgb(0, 0, 0); stroke-width: 0; stroke-linecap: butt; stroke-linejoin: miter; stroke-dasharray: none; stroke-dashoffset: 0; stroke-miterlimit: 4; opacity: 1" vector-effect="non-scaling-stroke" transform="matrix(0.5,0,0,0.5,27.5,-57.8)" d="M -233.7 -169 L -233.7 -165.6 C -233.7 -155.3 -238.4 -145.5 -242.6 -137.2 C -243 -136.3 -243.5 -135.5 -243.9 -134.7 C -245.6 -131.4 -247.1 -128.4 -248.4 -125.6 C -249.7 -122.6 -250.5 -120.1 -250.7 -118 L -240 -118 C -238.9 -118 -238 -117.1 -238 -116 L -238 -104.3 L -128 -104.3 C -119.9 -104.3 -113.2 -97.7 -113.2 -89.5 L -113.2 2.4 C -113.2 10.7 -119.8 17.3 -128 17.3 L -379.2 17.3 C -387.3 17.3 -394 10.7 -394 2.4 L -394 -89.5 C -394 -97.7 -387.4 -104.3 -379.2 -104.3 L -269.2 -104.3 L -269.2 -116 C -269.2 -117.1 -268.3 -118 -267.2 -118 L -257.4 -118 C -257.1 -121.4 -256 -124.9 -254.5 -128.3 C -253.2 -131.4 -251.5 -134.7 -249.8 -137.9 C -249.4 -138.7 -249 -139.5 -248.6 -140.3 C -244.3 -148.7 -240.4 -157.1 -240.4 -165.6 L -240.4 -169 L -233.7 -169 z M -329.2 -73.8 L -346.6 -73.8 L -346.6 -52.3 L -368.1 -52.3 L -368.1 -34.9 L -346.6 -34.9 L -346.6 -13.3 L -329.2 -13.3 L -329.2 -34.9 L -307.8 -34.9 L -307.8 -52.3 L -329.3 -52.3 L -329.3 -73.8 z M -180.3 -47.6 C -174.2 -47.6 -169.2 -52.6 -169.2 -58.7 C -169.2 -64.8 -174.2 -69.8 -180.3 -69.8 C -186.4 -69.8 -191.4 -64.8 -191.4 -58.7 C -191.4 -52.5 -186.5 -47.6 -180.3 -47.6 z M -169.3 -28.4 C -169.3 -22.3 -174.3 -17.3 -180.4 -17.3 C -186.5 -17.3 -191.5 -22.3 -191.5 -28.4 C -191.5 -34.6 -186.5 -39.6 -180.4 -39.6 C -174.3 -39.6 -169.3 -34.6 -169.3 -28.4 z M -150.2 -47.6 C -144.1 -47.6 -139.1 -52.6 -139.1 -58.7 C -139.1 -64.8 -144.1 -69.8 -150.2 -69.8 C -156.3 -69.8 -161.3 -64.8 -161.3 -58.7 C -161.2 -52.5 -156.3 -47.6 -150.2 -47.6 z M -139.1 -28.4 C -139.1 -22.3 -144.1 -17.3 -150.2 -17.3 C -156.3 -17.3 -161.3 -22.3 -161.3 -28.4 C -161.3 -34.6 -156.3 -39.6 -150.2 -39.6 C -144.1 -39.5 -139.1 -34.6 -139.1 -28.4 z M -258.5 -28.4 L -283 -28.4 L -283 -18.3 L -258.5 -18.3 L -258.5 -28.4 z M -248.4 -28.4 L -223.9 -28.4 L -223.9 -18.3 L -248.4 -18.3 L -248.4 -28.4 z" stroke-linecap="round"/>
  </g>
</svg>