<?xml version="1.0" encoding="UTF-8" standalone="no" ?>
<!DOCTYPE svg PUBLIC "-//W3C//DTD SVG 1.1//EN" "http://www.w3.org/Graphics/SVG/1.1/DTD/svg11.dtd">
<svg xmlns="http://www.w3.org/2000/svg" xmlns:xlink="http://www.w3.org/1999/xlink" version="1.1" width="1080" height="1080" viewBox="0 0 1080 1080" xml:space="preserve">
<desc>Created with Fabric.js 5.2.4</desc>
<defs>
</defs>
<g transform="matrix(1 0 0 1 540 540)" id="2fd12068-4581-405c-9f68-9215df8e39bb"  >
<rect style="stroke: none; stroke-width: 1; stroke-dasharray: none; stroke-linecap: butt; stroke-dashoffset: 0; stroke-linejoin: miter; stroke-miterlimit: 4; fill: rgb(255,255,255); fill-rule: nonzero; opacity: 1; visibility: hidden;" vector-effect="non-scaling-stroke"  x="-540" y="-540" rx="0" ry="0" width="1080" height="1080" />
</g>
<g transform="matrix(1 0 0 1 540 540)" id="f5f6e113-600b-444a-98b0-fbe8fa88eff3"  >
</g>
<g transform="matrix(1 0 0 1 540 540)" id="7af5ba41-20d5-41f8-9068-cedd857ac95d"  >
<path style="stroke: rgb(0,0,0); stroke-width: 0; stroke-dasharray: none; stroke-linecap: butt; stroke-dashoffset: 0; stroke-linejoin: miter; stroke-miterlimit: 4; fill: rgb(148,21,193); fill-rule: nonzero; opacity: 1;" vector-effect="non-scaling-stroke"  transform=" translate(-250.2, -249.6)" d="M 270.1 156.5 L 270.1 159.9 C 270.1 170.20000000000002 265.40000000000003 180 261.20000000000005 188.3 C 260.80000000000007 189.20000000000002 260.30000000000007 190 259.90000000000003 190.8 C 258.20000000000005 194.10000000000002 256.70000000000005 197.10000000000002 255.40000000000003 199.9 C 254.10000000000002 202.9 253.30000000000004 205.4 253.10000000000002 207.5 L 263.8 207.5 C 264.90000000000003 207.5 265.8 208.4 265.8 209.5 L 265.8 221.2 L 375.8 221.2 C 383.90000000000003 221.2 390.6 227.79999999999998 390.6 236 L 390.6 327.9 C 390.6 336.09999999999997 384 342.7 375.8 342.7 L 124.6 342.7 C 116.5 342.7 109.8 336.09999999999997 109.8 327.9 L 109.8 236 C 109.8 227.8 116.39999999999999 221.2 124.6 221.2 L 234.6 221.2 L 234.6 209.5 C 234.6 208.4 235.5 207.5 236.6 207.5 L 246.4 207.5 C 246.70000000000002 204.1 247.8 200.6 249.3 197.2 C 250.60000000000002 194.1 252.3 190.79999999999998 254 187.6 C 254.4 186.79999999999998 254.8 186 255.2 185.2 C 259.5 176.79999999999998 263.4 168.39999999999998 263.4 159.89999999999998 L 263.4 156.49999999999997 L 270.1 156.49999999999997 z M 174.6 251.7 L 157.2 251.7 L 157.2 273.2 L 135.7 273.2 L 135.7 290.59999999999997 L 157.2 290.59999999999997 L 157.2 312.09999999999997 L 174.6 312.09999999999997 L 174.6 290.59999999999997 L 196 290.59999999999997 L 196 273.2 L 174.5 273.2 L 174.5 251.7 z M 323.5 277.9 C 329.6 277.9 334.6 272.9 334.6 266.79999999999995 C 334.6 260.69999999999993 329.6 255.69999999999996 323.5 255.69999999999996 C 317.4 255.69999999999996 312.4 260.69999999999993 312.4 266.79999999999995 C 312.4 273 317.3 277.9 323.5 277.9 z M 334.5 297 C 334.5 303.1 329.5 308.1 323.4 308.1 C 317.29999999999995 308.1 312.29999999999995 303.1 312.29999999999995 297 C 312.29999999999995 290.9 317.29999999999995 285.9 323.4 285.9 C 329.5 285.9 334.5 290.9 334.5 297 z M 353.6 277.9 C 359.70000000000005 277.9 364.70000000000005 272.9 364.70000000000005 266.79999999999995 C 364.70000000000005 260.69999999999993 359.70000000000005 255.69999999999996 353.6 255.69999999999996 C 347.5 255.69999999999996 342.5 260.69999999999993 342.5 266.79999999999995 C 342.6 273 347.5 277.9 353.6 277.9 z M 364.7 297 C 364.7 303.1 359.7 308.1 353.59999999999997 308.1 C 347.49999999999994 308.1 342.49999999999994 303.1 342.49999999999994 297 C 342.49999999999994 290.9 347.49999999999994 285.9 353.59999999999997 285.9 C 359.7 286 364.7 290.9 364.7 297 z M 245.3 297 L 220.8 297 L 220.8 307.1 L 245.3 307.1 L 245.3 297 z M 255.4 297 L 279.9 297 L 279.9 307.1 L 255.39999999999998 307.1 L 255.39999999999998 297 z" stroke-linecap="round" />
</g>
</svg>